<?xml version="1.0" encoding="utf-8"?>
<!-- Generator: Adobe Illustrator 26.3.1, SVG Export Plug-In . SVG Version: 6.00 Build 0)  -->
<svg version="1.1" id="Layer_1" xmlns="http://www.w3.org/2000/svg" xmlns:xlink="http://www.w3.org/1999/xlink" x="0px" y="0px"
	 viewBox="0 0 147.8 60" style="enable-background:new 0 0 147.8 60;" xml:space="preserve">
<style type="text/css">
	.st0{enable-background:new    ;}
	.st1{fill:#1A1B1F;}
	.st2{fill:#201F1F;}
	.st3{fill:#F5C89E;}
	.st4{fill:#C9864F;}
</style>
<g class="st0">
	<path class="st1" d="M23,47.4c0.2,0.2,0.4,0.5,0.6,0.7c-2.8,2.7-6.5,5.8-10.4,5.8c-4.6,0-6.9-2.6-6.9-5.3v0c0-2.8,2.4-5.4,6.5-5.4
		c3.7,0,5.8,2.5,5.8,2.9c0,0.3-0.2,0.4-0.4,0.4s-0.4-0.1-0.4-0.4c0-0.2,0.2-0.4,0.4-0.4c0,0,0.1,0,0.1,0c-1.2-1.5-3.1-2.5-5.5-2.5
		c-4,0-6.4,2.5-6.4,5.3c0,2.7,2.3,5.2,6.8,5.2C17.3,53.9,20.5,50.8,23,47.4z M47.1,11.2c0,3.6-2.8,8.6-6.7,8.6h0
		c-1.6-0.1-2.4-1.3-2.4-2.6v-0.2c-1.4,3.2-9,9.3-18.7,9.3c-6.5,0-12.8-2.9-12.8-9.3c0-5.3,4.9-10.5,13.5-10.5c5.3,0,9.9,1.1,9.9,6.5
		c0,0.5-0.1,1.5-0.2,1.5c0,0,0,0,0,0c0.1-0.2,0.1-0.5,0.1-0.7c0-3.5-5-7-9.9-7C11.2,6.8,6.6,12,6.6,17c0,6.2,6.1,9,12.6,9
		c1.5,0,3-0.1,4.4-0.4c0.4-1,0.9-2,1.4-3C28.3,15.8,35.5,6.9,43,6.9C45.7,6.9,47.1,8.6,47.1,11.2z M43.4,33c0,6.3-6,17.3-13.8,17.3
		c-6.4,0-8.6-5.9-8.6-12.3c0-4,0.9-7.9,2.4-11.7c1.1-0.2,2.2-0.4,3.2-0.8c-1.8,4.4-4,11.5-4,16.3c0,1.7,0.2,3.5,1,5
		c2.9-4.1,11.5-18.1,16.6-18.1C42.4,28.6,43.4,30.6,43.4,33z M43.2,32.8c0-2.4-1-4.1-3.1-4.1c-4.8,0-8.1,10.8-16.1,18.9
		c1.3,1.8,3.3,2.5,5.5,2.5C36.8,50.1,43.2,39.3,43.2,32.8z M43.4,7.1c-7.9,0-13.6,10.3-16.6,17.6c3.7-1.3,7.7-3.7,10.1-6.7
		c1.3-1.6,1.2-3.1,2.8-3.1c0.4,0,0.8,0.4,0.8,0.8s-0.4,0.8-0.8,0.8c0,0-0.4,0.7-0.4,1.6c0,0.9,0.6,1.4,1.5,1.4
		c3.5-0.1,6.1-4.9,6.1-8.4C47,8.7,45.8,7.1,43.4,7.1z"/>
	<path class="st1" d="M56.8,39.3c-2.7,4.2-5.3,8.2-7.5,8.2c-0.5,0-1.5,0-1.5-1.9c0-5.7,3.2-9.5,3.2-11.7c0-1.2-1.6-1.8-2.2-3.5
		c-1.1,2.8-2.7,6.1-4.3,8.9l-0.2-0.2c1.7-2.9,3.3-6.3,4.4-9.1c-0.2-0.5-0.3-1.1-0.3-1.7c0-0.8,0.3-1.7,0.6-2.4h1.5
		c-0.4,2.1-1.3,3.8-1.3,4.4c0,1.7,2.8,1.2,2.8,7.1c0,4.5-3.5,7.5-3.5,9.1c0,0.5,0.4,0.6,0.8,0.6c2,0,4.7-4.2,7.2-8L56.8,39.3z"/>
	<path class="st1" d="M89.8,39.1l0.2,0.2l-0.2,0.2c-2.7,4.1-5.2,7.9-7.3,7.9c-0.8,0-1.9-0.1-1.9-2.4c0-5.9,4.2-9.8,4.2-12.2
		c0-1.2-0.9-1.6-2.1-1.6c-4.4,0-10,13.5-11.1,16.2h-2.9c1.7-3.6,6.8-10.8,6.8-14.3c0-1.3-0.7-1.9-2-1.9c-4.6,0-9.6,11.5-11.9,16.2
		h-3.1c0.9-2.3,7.2-11.2,7.2-14.8c0-0.9-0.4-1.4-1.2-1.4c-2.2,0-5,4.3-7.5,8l-0.2-0.2c1.7-2.6,5.1-8.2,7.8-8.2
		c1.1,0,1.8,0.5,1.8,2.5c0,1.6-0.5,3.8-1.3,6.1c2.3-4.3,5.5-8.6,8.8-8.6c1.6,0,2.3,1,2.3,2.7c0,1.7-0.7,4.3-1.6,6.9
		c2.2-4.7,5.2-9.6,8.6-9.6c2.2,0,2.8,1.2,2.8,3.4c0,6.1-4.3,9.8-4.3,11.8c0,0.8,0.7,0.9,1,0.9h0.1c1.9,0,4.5-3.9,7.1-7.8L89.8,39.1z
		"/>
</g>
<g>
	<path class="st2" d="M139.2,19.4c-0.2-2-1.5-3.8-3.4-4.7l-21.3-9.4c-1.7-0.7-3.6-0.3-4.8,1.1L98.1,20.1c-1.1,1.4-1.8,3.1-1.8,4.9
		l-0.1,16.2c0,1.7,1,3.2,2.6,3.9l22.1,8.6c1.9,0.7,4.1,0.3,5.5-1.2l13.1-13.3c0.9-0.9,1.3-2.1,1.2-3.3L139.2,19.4z M97.2,41.5
		L97.2,41.5c-0.2-0.1-0.3-0.5-0.3-1.2L97,26c0-1.9,1.1-4.7,2.3-6.2l10.6-12.5c0.5-0.6,0.8-0.7,1-0.7c0.1,0,0.3,0.3,0.4,1.2l0.4,14.5
		c0.1,1.9-1,4.7-2.2,6.1L98.2,40.8C97.6,41.5,97.2,41.5,97.2,41.5z M137.8,40l-11.6,11.7c-0.9,0.9-2.3,1.4-3.8,1.4l0,0
		c-0.6,0-1.1-0.1-1.6-0.3l-21-8.1c-0.7-0.3-1.2-0.7-1.3-1.3s0.1-1.2,0.6-1.8L110.3,29c0.8-0.9,2.2-1.5,3.6-1.5
		c0.6,0,1.1,0.1,1.6,0.3l21.7,9.1c0.7,0.3,1.2,0.8,1.3,1.3S138.4,39.5,137.8,40z M139.6,35.7c-0.2,0.2-0.5,0.3-0.9,0.3l0,0
		c-0.3,0-0.6-0.1-1-0.2l-21.7-9c-1.7-0.7-3.1-2.8-3.1-4.6l-0.4-14.5c0-0.6,0.1-1.2,0.4-1.5c0.2-0.2,0.5-0.4,0.9-0.4
		c0.3,0,0.6,0.1,1,0.2l20.4,9c1.7,0.7,3.2,2.9,3.4,4.7l1.3,14.4C140,34.9,139.9,35.4,139.6,35.7z"/>
	<path class="st3" d="M138.6,19.9c-0.2-1.8-1.7-3.9-3.4-4.7l-20.4-9c-0.4-0.2-0.7-0.2-1-0.2c-0.4,0-0.7,0.1-0.9,0.4
		c-0.3,0.3-0.5,0.8-0.4,1.5l0.4,14.5c0.1,1.8,1.5,3.9,3.1,4.6l21.7,9c0.3,0.1,0.7,0.2,1,0.2l0,0c0.4,0,0.7-0.1,0.9-0.3
		c0.3-0.3,0.4-0.8,0.3-1.5L138.6,19.9z M115.2,10.2c0-0.3,0.1-0.5,0.2-0.7s0.3-0.3,0.6-0.4c0.2-0.1,0.6-0.1,0.9-0.1s0.7,0.1,1.1,0.3
		s0.8,0.4,1.1,0.7c0.3,0.3,0.7,0.5,0.9,0.9c0.3,0.3,0.5,0.6,0.6,0.9c0.2,0.3,0.2,0.6,0.3,0.9c0,0.3,0,0.5-0.2,0.7
		c-0.1,0.2-0.3,0.3-0.6,0.4c-0.2,0.1-0.5,0.1-0.9,0.1c-0.3,0-0.7-0.1-1.1-0.3s-0.8-0.4-1.1-0.7c-0.3-0.3-0.7-0.6-0.9-0.9
		c-0.3-0.3-0.5-0.6-0.6-1C115.3,10.8,115.2,10.5,115.2,10.2z M121.3,25.6c-0.1,0.2-0.3,0.4-0.6,0.5c-0.3,0.1-0.6,0.1-0.9,0.1
		s-0.7-0.1-1.1-0.3c-0.4-0.2-0.8-0.4-1.2-0.7c-0.4-0.3-0.7-0.6-1-0.9s-0.5-0.7-0.7-1s-0.3-0.7-0.3-1s0.1-0.6,0.2-0.8
		c0.1-0.2,0.3-0.4,0.6-0.5c0.3-0.1,0.6-0.1,0.9-0.1s0.7,0.1,1.1,0.3c0.4,0.2,0.8,0.4,1.1,0.7c0.4,0.3,0.7,0.6,0.9,0.9
		c0.3,0.3,0.5,0.7,0.7,1s0.3,0.7,0.3,1C121.5,25.2,121.5,25.4,121.3,25.6z M128.8,22.8c-0.1,0.2-0.3,0.4-0.6,0.4
		c-0.2,0.1-0.5,0.1-0.9,0.1c-0.3,0-0.7-0.1-1.1-0.3c-0.4-0.2-0.8-0.4-1.1-0.6c-0.3-0.3-0.7-0.6-0.9-0.9c-0.3-0.3-0.5-0.6-0.7-1
		c-0.2-0.3-0.3-0.7-0.3-1s0-0.6,0.2-0.8c0.1-0.2,0.3-0.4,0.6-0.4c0.2-0.1,0.5-0.1,0.9-0.1c0.3,0,0.7,0.1,1.1,0.3
		c0.4,0.2,0.8,0.4,1.1,0.6c0.3,0.3,0.7,0.5,0.9,0.9c0.3,0.3,0.5,0.6,0.6,1c0.2,0.3,0.3,0.7,0.3,1C129,22.3,129,22.6,128.8,22.8z
		 M130.7,16.9c0-0.3,0-0.5,0.2-0.7c0.1-0.2,0.3-0.3,0.5-0.4c0.2-0.1,0.5-0.1,0.8-0.1s0.7,0.1,1.1,0.3c0.4,0.2,0.7,0.4,1.1,0.6
		c0.3,0.3,0.6,0.5,0.9,0.8c0.3,0.3,0.5,0.6,0.6,0.9c0.2,0.3,0.3,0.6,0.3,0.9s0,0.5-0.1,0.7s-0.3,0.3-0.5,0.4s-0.5,0.1-0.8,0.1
		s-0.7-0.1-1.1-0.3c-0.4-0.2-0.7-0.4-1.1-0.6c-0.3-0.3-0.6-0.5-0.9-0.8c-0.3-0.3-0.5-0.6-0.6-0.9C130.8,17.5,130.7,17.2,130.7,16.9z
		 M137,32.3c-0.1,0.2-0.3,0.4-0.5,0.5s-0.5,0.1-0.9,0.1c-0.3,0-0.7-0.1-1.1-0.3c-0.4-0.2-0.8-0.4-1.1-0.6c-0.3-0.3-0.7-0.6-0.9-0.9
		c-0.3-0.3-0.5-0.7-0.7-1s-0.3-0.7-0.3-1s0-0.6,0.2-0.8c0.1-0.2,0.3-0.4,0.6-0.5c0.2-0.1,0.5-0.1,0.9-0.1c0.3,0,0.7,0.1,1.1,0.3
		c0.4,0.2,0.8,0.4,1.1,0.6c0.3,0.3,0.7,0.5,0.9,0.9c0.3,0.3,0.5,0.6,0.7,1c0.2,0.3,0.3,0.7,0.3,1C137.2,31.8,137.1,32.1,137,32.3z"
		/>
	<path class="st1" d="M128.7,21.1c-0.2-0.3-0.4-0.7-0.6-1c-0.3-0.3-0.6-0.6-0.9-0.9s-0.7-0.5-1.1-0.6c-0.4-0.2-0.8-0.3-1.1-0.3
		c-0.3,0-0.6,0-0.9,0.1c-0.2,0.1-0.4,0.2-0.6,0.4c-0.1,0.2-0.2,0.5-0.2,0.8s0.1,0.6,0.3,1c0.2,0.3,0.4,0.7,0.7,1
		c0.3,0.3,0.6,0.6,0.9,0.9s0.7,0.5,1.1,0.6c0.4,0.2,0.8,0.3,1.1,0.3c0.3,0,0.6,0,0.9-0.1c0.2-0.1,0.4-0.2,0.6-0.4
		c0.1-0.2,0.2-0.5,0.2-0.8C129,21.7,128.9,21.4,128.7,21.1z"/>
	<path class="st1" d="M132.5,19.6c0.3,0.3,0.7,0.5,1.1,0.6c0.4,0.2,0.7,0.3,1.1,0.3c0.3,0,0.6,0,0.8-0.1s0.4-0.2,0.5-0.4
		c0.1-0.2,0.2-0.4,0.1-0.7c0-0.3-0.1-0.6-0.3-0.9s-0.4-0.6-0.6-0.9c-0.3-0.3-0.6-0.6-0.9-0.8c-0.3-0.3-0.7-0.5-1.1-0.6
		c-0.4-0.2-0.7-0.3-1.1-0.3c-0.3,0-0.6,0-0.8,0.1c-0.2,0.1-0.4,0.2-0.5,0.4s-0.2,0.4-0.2,0.7c0,0.3,0.1,0.6,0.3,0.9s0.4,0.6,0.6,0.9
		C131.8,19.1,132.2,19.4,132.5,19.6z"/>
	<path class="st1" d="M121.2,23.9c-0.2-0.3-0.4-0.7-0.7-1c-0.3-0.3-0.6-0.6-0.9-0.9c-0.4-0.3-0.7-0.5-1.1-0.7s-0.8-0.3-1.1-0.3
		c-0.3,0-0.7,0-0.9,0.1c-0.3,0.1-0.5,0.2-0.6,0.5c-0.1,0.2-0.2,0.5-0.2,0.8s0.1,0.7,0.3,1c0.2,0.3,0.4,0.7,0.7,1
		c0.3,0.3,0.6,0.6,1,0.9s0.7,0.5,1.2,0.7c0.4,0.2,0.8,0.3,1.1,0.3c0.3,0,0.7,0,0.9-0.1c0.3-0.1,0.5-0.3,0.6-0.5s0.2-0.5,0.2-0.8
		C121.5,24.5,121.4,24.2,121.2,23.9z"/>
	<path class="st1" d="M136.9,30.5c-0.2-0.3-0.4-0.7-0.7-1s-0.6-0.6-0.9-0.9c-0.3-0.3-0.7-0.5-1.1-0.6c-0.4-0.2-0.8-0.3-1.1-0.3
		s-0.6,0-0.9,0.1c-0.2,0.1-0.4,0.3-0.6,0.5c-0.1,0.2-0.2,0.5-0.2,0.8s0.1,0.6,0.3,1c0.2,0.3,0.4,0.7,0.7,1s0.6,0.6,0.9,0.9
		c0.3,0.3,0.7,0.5,1.1,0.6c0.4,0.2,0.8,0.3,1.1,0.3s0.6,0,0.9-0.1c0.2-0.1,0.4-0.3,0.5-0.5s0.2-0.5,0.1-0.8
		C137.1,31.2,137,30.8,136.9,30.5z"/>
	<path class="st1" d="M117,12.9c0.3,0.3,0.7,0.5,1.1,0.7s0.8,0.3,1.1,0.3c0.3,0,0.6,0,0.9-0.1c0.2-0.1,0.4-0.2,0.6-0.4
		c0.1-0.2,0.2-0.4,0.2-0.7s-0.1-0.6-0.3-0.9c-0.2-0.3-0.4-0.6-0.6-0.9c-0.3-0.3-0.6-0.6-0.9-0.9c-0.3-0.3-0.7-0.5-1.1-0.7
		S117.2,9,116.9,9c-0.3,0-0.6,0-0.9,0.1s-0.5,0.2-0.6,0.4s-0.2,0.4-0.2,0.7s0.1,0.6,0.3,0.9c0.2,0.3,0.4,0.6,0.6,1
		C116.4,12.4,116.7,12.7,117,12.9z"/>
	<path class="st4" d="M137.2,37l-21.7-9c-0.5-0.2-1-0.3-1.6-0.3c-1.4,0-2.8,0.6-3.6,1.5L99.1,41.7c-0.5,0.6-0.7,1.2-0.6,1.8
		s0.6,1,1.3,1.3l21,8.1c0.5,0.2,1,0.3,1.6,0.3l0,0c1.4,0,2.9-0.6,3.8-1.4L137.8,40c0.5-0.5,0.8-1.1,0.7-1.7S137.9,37.3,137.2,37z
		 M109.3,43.1c0,0.3-0.2,0.5-0.4,0.8c-0.2,0.2-0.5,0.4-0.9,0.6c-0.3,0.2-0.7,0.3-1.1,0.3c-0.4,0.1-0.8,0.1-1.3,0
		c-0.4,0-0.9-0.1-1.3-0.3s-0.7-0.4-1-0.6c-0.3-0.2-0.5-0.5-0.6-0.7c-0.1-0.3-0.2-0.5-0.1-0.8c0-0.3,0.2-0.5,0.4-0.8
		c0.2-0.2,0.5-0.4,0.9-0.6c0.3-0.2,0.7-0.3,1.1-0.3c0.4-0.1,0.8-0.1,1.3,0c0.4,0,0.9,0.1,1.3,0.3s0.7,0.4,1,0.6
		c0.3,0.2,0.5,0.5,0.6,0.7S109.3,42.8,109.3,43.1z M117.1,46.2c-0.1,0.3-0.2,0.5-0.4,0.8c-0.2,0.2-0.5,0.4-0.9,0.6
		c-0.3,0.1-0.7,0.3-1.1,0.3c-0.4,0.1-0.8,0.1-1.2,0c-0.4,0-0.8-0.1-1.2-0.3c-0.4-0.2-0.7-0.3-1-0.6c-0.3-0.2-0.4-0.5-0.6-0.7
		c-0.1-0.3-0.1-0.5-0.1-0.8s0.2-0.5,0.4-0.8c0.2-0.2,0.5-0.4,0.9-0.6c0.3-0.2,0.7-0.3,1.1-0.3c0.4-0.1,0.8-0.1,1.3,0
		c0.4,0,0.8,0.1,1.2,0.3c0.4,0.2,0.7,0.4,1,0.6c0.3,0.2,0.4,0.5,0.5,0.7C117.1,45.6,117.2,45.9,117.1,46.2z M117.1,34.5
		c-0.4,0.2-0.7,0.3-1.2,0.3c-0.4,0.1-0.9,0.1-1.3,0c-0.4,0-0.9-0.2-1.3-0.3c-0.4-0.2-0.7-0.4-1-0.6c-0.3-0.2-0.5-0.5-0.6-0.8
		s-0.1-0.6-0.1-0.8c0.1-0.3,0.2-0.6,0.4-0.8c0.2-0.3,0.5-0.5,0.9-0.6c0.4-0.2,0.8-0.3,1.2-0.3c0.4-0.1,0.9-0.1,1.3,0
		s0.9,0.2,1.3,0.3c0.4,0.2,0.7,0.4,1,0.6s0.5,0.5,0.6,0.8s0.1,0.6,0.1,0.8c-0.1,0.3-0.2,0.6-0.4,0.8
		C117.8,34.2,117.5,34.4,117.1,34.5z M124.8,49.2c-0.1,0.3-0.2,0.5-0.4,0.7c-0.2,0.2-0.5,0.4-0.9,0.6c-0.3,0.1-0.7,0.3-1.1,0.3
		c-0.4,0.1-0.8,0.1-1.2,0c-0.4,0-0.8-0.1-1.2-0.3c-0.4-0.2-0.7-0.3-1-0.6c-0.3-0.2-0.4-0.5-0.5-0.7c-0.1-0.3-0.1-0.5-0.1-0.8
		c0.1-0.3,0.2-0.5,0.4-0.8c0.2-0.2,0.5-0.4,0.9-0.6c0.3-0.2,0.7-0.3,1.1-0.3c0.4-0.1,0.8-0.1,1.3,0c0.4,0,0.8,0.1,1.2,0.3
		c0.4,0.2,0.7,0.3,1,0.6c0.2,0.2,0.4,0.5,0.5,0.7C124.9,48.7,124.9,49,124.8,49.2z M126.4,36.4c-0.1,0.3-0.2,0.5-0.4,0.8
		c-0.2,0.3-0.5,0.5-0.9,0.6c-0.4,0.2-0.7,0.3-1.2,0.3c-0.4,0.1-0.8,0.1-1.3,0c-0.4,0-0.9-0.2-1.3-0.3c-0.4-0.2-0.7-0.4-1-0.6
		c-0.3-0.2-0.4-0.5-0.6-0.8c-0.1-0.3-0.1-0.6-0.1-0.8c0.1-0.3,0.2-0.6,0.4-0.8c0.2-0.3,0.5-0.5,0.9-0.6c0.4-0.2,0.8-0.3,1.2-0.3
		c0.4-0.1,0.9-0.1,1.3,0c0.4,0,0.9,0.2,1.3,0.3c0.4,0.2,0.7,0.4,1,0.6c0.3,0.2,0.4,0.5,0.5,0.8C126.5,35.8,126.5,36.1,126.4,36.4z
		 M134.2,39.6c-0.1,0.3-0.2,0.5-0.5,0.8c-0.2,0.2-0.5,0.4-0.9,0.6c-0.4,0.2-0.7,0.3-1.2,0.3c-0.4,0.1-0.8,0.1-1.3,0
		c-0.4,0-0.8-0.1-1.2-0.3s-0.7-0.4-1-0.6c-0.3-0.2-0.4-0.5-0.5-0.8s-0.1-0.5-0.1-0.8c0.1-0.3,0.2-0.5,0.4-0.8
		c0.2-0.2,0.5-0.5,0.9-0.6c0.4-0.2,0.7-0.3,1.2-0.3c0.4-0.1,0.9-0.1,1.3,0c0.4,0,0.9,0.2,1.2,0.3c0.4,0.2,0.7,0.4,1,0.6
		c0.2,0.2,0.4,0.5,0.5,0.8C134.3,39,134.3,39.3,134.2,39.6z"/>
	<path class="st1" d="M116.5,44.6c-0.3-0.2-0.6-0.4-1-0.6c-0.4-0.2-0.8-0.3-1.2-0.3c-0.4,0-0.9,0-1.3,0c-0.4,0.1-0.8,0.2-1.1,0.3
		c-0.3,0.2-0.6,0.4-0.9,0.6c-0.2,0.2-0.4,0.5-0.4,0.8s0,0.5,0.1,0.8s0.3,0.5,0.6,0.7c0.3,0.2,0.6,0.4,1,0.6c0.4,0.2,0.8,0.3,1.2,0.3
		c0.4,0,0.8,0,1.2,0c0.4-0.1,0.8-0.2,1.1-0.3c0.3-0.2,0.6-0.3,0.9-0.6c0.2-0.2,0.4-0.5,0.4-0.8c0.1-0.3,0-0.5-0.1-0.8
		C116.9,45.1,116.7,44.9,116.5,44.6z"/>
	<path class="st1" d="M108.6,41.5c-0.3-0.2-0.6-0.4-1-0.6c-0.4-0.2-0.8-0.3-1.3-0.3c-0.4,0-0.9,0-1.3,0c-0.4,0.1-0.8,0.2-1.1,0.3
		c-0.3,0.2-0.6,0.4-0.9,0.6c-0.2,0.2-0.4,0.5-0.4,0.8s0,0.5,0.1,0.8s0.3,0.5,0.6,0.7c0.3,0.2,0.6,0.4,1,0.6c0.4,0.2,0.8,0.3,1.3,0.3
		c0.4,0,0.9,0,1.3,0c0.4-0.1,0.8-0.2,1.1-0.3c0.3-0.2,0.6-0.4,0.9-0.6c0.2-0.2,0.4-0.5,0.4-0.8s0-0.5-0.1-0.8
		C109,42,108.9,41.7,108.6,41.5z"/>
	<path class="st1" d="M124.2,47.7c-0.2-0.2-0.6-0.4-1-0.6c-0.4-0.2-0.8-0.3-1.2-0.3c-0.4,0-0.8,0-1.3,0c-0.4,0.1-0.8,0.2-1.1,0.3
		c-0.3,0.2-0.6,0.3-0.9,0.6c-0.2,0.2-0.4,0.5-0.4,0.8c-0.1,0.3,0,0.5,0.1,0.8s0.3,0.5,0.5,0.7c0.3,0.2,0.6,0.4,1,0.6
		c0.4,0.2,0.8,0.2,1.2,0.3c0.4,0,0.8,0,1.2,0c0.4-0.1,0.8-0.2,1.1-0.3c0.3-0.1,0.6-0.3,0.9-0.6c0.2-0.2,0.4-0.5,0.4-0.7
		c0.1-0.3,0-0.5-0.1-0.8C124.7,48.2,124.5,47.9,124.2,47.7z"/>
	<path class="st1" d="M125.8,34.8c-0.3-0.2-0.6-0.4-1-0.6c-0.4-0.2-0.8-0.3-1.3-0.3c-0.4,0-0.9,0-1.3,0c-0.4,0.1-0.8,0.2-1.2,0.3
		c-0.4,0.2-0.7,0.4-0.9,0.6c-0.2,0.3-0.4,0.5-0.4,0.8c-0.1,0.3,0,0.6,0.1,0.8c0.1,0.3,0.3,0.5,0.6,0.8c0.3,0.2,0.6,0.4,1,0.6
		c0.4,0.2,0.8,0.3,1.3,0.3c0.4,0,0.9,0,1.3,0c0.4-0.1,0.8-0.2,1.2-0.3c0.4-0.2,0.7-0.4,0.9-0.6c0.2-0.3,0.4-0.5,0.4-0.8
		c0.1-0.3,0-0.6-0.1-0.8C126.3,35.3,126.1,35,125.8,34.8z"/>
	<path class="st1" d="M133.7,38c-0.3-0.2-0.6-0.4-1-0.6c-0.4-0.2-0.8-0.3-1.2-0.3s-0.9,0-1.3,0c-0.4,0.1-0.8,0.2-1.2,0.3
		c-0.4,0.2-0.7,0.4-0.9,0.6c-0.2,0.2-0.4,0.5-0.4,0.8c-0.1,0.3,0,0.6,0.1,0.8c0.1,0.3,0.3,0.5,0.5,0.8c0.3,0.2,0.6,0.4,1,0.6
		c0.4,0.2,0.8,0.3,1.2,0.3s0.9,0,1.3,0c0.4-0.1,0.8-0.2,1.2-0.3c0.4-0.2,0.7-0.4,0.9-0.6c0.2-0.2,0.4-0.5,0.5-0.8s0-0.6,0-0.8
		C134.1,38.5,133.9,38.2,133.7,38z"/>
	<path class="st1" d="M118.4,32.2c-0.1-0.3-0.3-0.5-0.6-0.8c-0.3-0.2-0.6-0.5-1-0.6c-0.4-0.2-0.8-0.3-1.3-0.3c-0.4-0.1-0.9,0-1.3,0
		c-0.4,0.1-0.8,0.2-1.2,0.3c-0.4,0.2-0.7,0.4-0.9,0.6c-0.2,0.3-0.4,0.5-0.4,0.8c-0.1,0.3,0,0.6,0.1,0.8c0.1,0.3,0.3,0.5,0.6,0.8
		c0.3,0.2,0.6,0.4,1,0.6c0.4,0.2,0.8,0.3,1.3,0.3c0.4,0,0.9,0,1.3,0c0.4-0.1,0.8-0.2,1.2-0.3c0.4-0.2,0.7-0.4,0.9-0.6
		c0.2-0.3,0.4-0.5,0.4-0.8C118.5,32.8,118.5,32.5,118.4,32.2z"/>
	<path class="st3" d="M111.6,22.2l-0.4-14.5c0-0.8-0.2-1.2-0.4-1.2c-0.1,0-0.5,0.2-1,0.7L99.3,19.8C98,21.2,97,24.1,97,26l-0.1,14.4
		c0,0.7,0.1,1,0.2,1.2c0,0,0,0,0.1,0c0,0,0.4,0,1-0.7l11.2-12.6C110.6,26.9,111.6,24.1,111.6,22.2z M105.5,23.2
		c-0.1,0.4-0.2,0.7-0.3,1.1c-0.1,0.4-0.3,0.7-0.5,1.1c-0.2,0.3-0.4,0.6-0.6,0.9s-0.4,0.4-0.6,0.5s-0.4,0.1-0.5,0.1s-0.3-0.1-0.3-0.3
		c-0.1-0.2-0.1-0.4-0.1-0.7c0-0.3,0-0.6,0.1-1s0.2-0.7,0.3-1.1c0.1-0.4,0.3-0.7,0.5-1.1c0.2-0.3,0.4-0.6,0.6-0.9s0.4-0.4,0.6-0.5
		s0.4-0.1,0.5-0.1s0.3,0.1,0.4,0.3c0.1,0.2,0.1,0.4,0.1,0.7C105.6,22.4,105.5,22.8,105.5,23.2z"/>
	<path class="st1" d="M105.1,21.1c-0.1,0-0.3,0-0.5,0.1s-0.4,0.3-0.6,0.5c-0.2,0.3-0.4,0.6-0.6,0.9s-0.4,0.7-0.5,1.1
		s-0.3,0.7-0.3,1.1c-0.1,0.4-0.1,0.7-0.1,1s0,0.5,0.1,0.7s0.2,0.3,0.3,0.3c0.1,0,0.3,0,0.5-0.1s0.4-0.3,0.6-0.5
		c0.2-0.3,0.4-0.6,0.6-0.9s0.4-0.7,0.5-1.1s0.3-0.7,0.3-1.1c0.1-0.4,0.1-0.7,0.1-1s-0.1-0.5-0.1-0.7
		C105.3,21.3,105.2,21.1,105.1,21.1z"/>
</g>
</svg>
