<?xml version="1.0" encoding="utf-8"?>
<!-- Generator: Adobe Illustrator 26.3.1, SVG Export Plug-In . SVG Version: 6.00 Build 0)  -->
<svg version="1.1" id="Layer_1" xmlns="http://www.w3.org/2000/svg" xmlns:xlink="http://www.w3.org/1999/xlink" x="0px" y="0px"
	 viewBox="0 0 428.3 60" style="enable-background:new 0 0 428.3 60;" xml:space="preserve">
<style type="text/css">
	.st0{fill:#F5C89E;}
	.st1{fill:#201F1F;}
	.st2{fill:#1A1B1F;}
	.st3{fill:#C9864F;}
</style>
<g>
	<path class="st0" d="M19,39.6c0.1,0.2,0.3,0.4,0.4,0.5c-2.1,2.1-5,4.5-7.9,4.5c-3.5,0-5.3-2-5.3-4.1l0,0c0-2.1,1.8-4.1,5-4.1
		c2.8,0,4.4,1.9,4.4,2.2c0,0.2-0.1,0.3-0.3,0.3S15,38.8,15,38.6c0-0.1,0.1-0.3,0.3-0.3h0.1c-0.9-1.1-2.4-1.9-4.2-1.9
		c-3.1,0-4.9,1.9-4.9,4s1.8,4,5.2,4C14.7,44.5,17.1,42.2,19,39.6z M37.4,11.9c0,2.8-2.1,6.6-5.1,6.6l0,0c-1.2-0.1-1.8-1-1.8-2v-0.2
		c-1.1,2.5-6.9,7.1-14.3,7.1c-5,0-9.8-2.2-9.8-7.1c0-4,3.8-8,10.3-8c4,0,7.5,0.8,7.5,5c0,0.4-0.1,1.1-0.1,1.1l0,0
		c0-0.2,0.1-0.4,0.1-0.5c0-2.7-3.8-5.3-7.6-5.3c-6.5,0-10.1,4-10.1,7.8c0,4.7,4.7,6.9,9.6,6.9c1.1,0,2.3-0.1,3.4-0.3
		c0.3-0.8,0.7-1.5,1-2.3c2.6-5.2,8.1-12,13.8-12C36.4,8.6,37.4,9.9,37.4,11.9z M34.6,28.6c0,4.8-4.6,13.2-10.6,13.2
		c-4.9,0-6.5-4.5-6.5-9.4c0-3.1,0.7-6.1,1.8-9c0.8-0.1,1.7-0.3,2.4-0.6c-1.4,3.4-3.1,8.8-3.1,12.4c0,1.3,0.2,2.7,0.8,3.8
		c2.2-3.1,8.8-13.8,12.7-13.8C33.9,25.3,34.6,26.8,34.6,28.6z M34.4,28.5c0-1.8-0.8-3.1-2.4-3.1c-3.7,0-6.2,8.2-12.3,14.5
		c1,1.4,2.5,1.9,4.2,1.9C29.5,41.7,34.4,33.4,34.4,28.5z M34.6,8.8c-6,0-10.4,7.9-12.7,13.5c2.9-1,5.9-2.9,7.8-5.1
		c1-1.2,0.9-2.4,2.2-2.4c0.3,0,0.6,0.3,0.6,0.6S32.2,16,31.9,16c0,0-0.3,0.6-0.3,1.2c0,0.7,0.5,1.1,1.1,1.1c2.6,0,4.7-3.7,4.7-6.4
		C37.4,10,36.4,8.8,34.6,8.8z"/>
	<path class="st0" d="M49.8,33.3l0.2,0.1c-2.8,4.3-4.2,6.2-5.9,6.2c-1.4,0-1.8-1.5-1.8-2.9c0-0.8,0.1-1.6,0.4-2.5
		c-1.1,2.1-3.2,5.5-5.6,5.5c-1.6,0-2.1-2-2.1-3.6c0-5.1,3.9-9.1,6.8-9.1c1.8,0,2.3,1.3,2.3,3.1c0,0.3,0,0.7-0.1,1.2
		c0.7-1.3,3.2-4.2,4.4-4.2c0.1,0,0.3,0.1,0.3,0.3c0,0.2-0.1,0.3-0.3,0.3s-0.3-0.1-0.3-0.3l0,0c-2.6,1.1-4.9,10-4.9,10.8
		c0,0.9,0.5,1.4,1.2,1.4C46,39.4,48.7,35,49.8,33.3z M43.7,31.6c0.1-0.4,0.2-1.1,0.2-1.7c0-1.3-0.5-2.6-1.8-2.6
		c-2.8,0-6.1,9-6.1,10.6l0,0c0,0.8,0.4,1.4,1.3,1.4C39.9,39.4,42.7,34.1,43.7,31.6z"/>
	<path class="st0" d="M57.4,33.3l0.2,0.1c-1.6,2.6-4.3,6.3-7.4,6.3c-1.9,0-3-1.2-3-3s1.1-3.1,2.6-3.1c0.6,0,1,0.6,1.1,1.1
		c0,0.3-0.2,0.5-0.5,0.5S50,35,50,34.8v-0.1c0-0.2,0.1-0.3,0.3-0.4c0.1,0,0.1,0,0.1,0h0.1c-0.1-0.3-0.4-0.5-0.8-0.5
		c-1.5,0-2.4,1.4-2.4,2.9c0,1.6,1.1,2.7,2.4,2.7c2.2,0,3.1-2.3,3.1-4.5v-0.1c0-1.2-0.4-2.2-0.4-4.4c0-0.7,0-1.4,0.1-2.1
		c-0.8,1.7-1.5,3.2-2.6,5.1l-0.2-0.1c1.1-1.8,1.8-3.2,2.5-4.9c0.2-0.5,0.4-1,0.5-1.5c0.4-1.5,1.3-2.5,1.9-3.2l0.7,1
		c-0.7,0-2.4,1.4-2.4,2.8c0,2,1.7,3.4,1.7,6.3c0,2.3-1.1,4.2-2.6,5.2C54.2,38.1,56.3,35.2,57.4,33.3z"/>
	<path class="st0" d="M64.1,33.3l0.2,0.1c-1,1.6-3.9,6.2-5.7,6.2c-1,0-2.2-0.5-2.2-2.1c0-3.1,1.7-5.9,2.9-8.2c0,0,0.1,0.1,0.4,0.1
		s0.6-0.1,1.1-0.3c1.3-0.6,2.2-2.2,2.2-2.2c-0.5,1.3-5.6,8.4-5.6,11.3c0,0.9,0.5,1.2,1.1,1.2C60.3,39.4,63.3,34.8,64.1,33.3z
		 M63,23.2c0.6,0,1.1,0.5,1.1,1.1s-0.5,1.1-1.1,1.1s-1.1-0.5-1.1-1.1S62.4,23.2,63,23.2z"/>
	<path class="st0" d="M76.3,39.4c1.5,0,3.6-3.2,5.5-6.1l0.2,0.1c-2.1,3.2-4,6.2-5.7,6.2c-0.6,0-1.5-0.1-1.5-1.8
		c0-4.5,3.2-7.5,3.2-9.3c0-0.9-0.7-1.3-1.6-1.3c-3.6,0-7.1,9.7-8.6,12.4h-2.4c0.7-1.8,5.5-8.5,5.5-11.3c0-0.7-0.3-1.1-1-1.1
		c-1.7,0-3.9,3.3-5.7,6.1L64,33.2c1.3-2,3.9-6.2,5.9-6.2c0.8,0,1.4,0.4,1.4,1.9c0,1.2-0.4,2.9-1,4.6c1.7-3.3,3.8-6.5,6.1-6.5
		c1.7,0,2.2,1,2.2,2.6c0,4.7-3.3,7.5-3.3,9C75.5,39.4,76.1,39.4,76.3,39.4L76.3,39.4z"/>
	<path class="st0" d="M89.4,34.2c-0.8,2.2-2.8,5.4-5.2,5.4c-1.9,0-2.6-2.6-2.6-4.5c0-3.4,2.7-8.1,6.8-8.1c1.5,0,1.9,1.4,1.9,2.9
		c0,1.3-0.3,2.6-0.7,3.8c0.1,0.4,0.6,0.6,0.9,0.6c0.8,0,1.4-1,1.4-1l0.2,0.1c0,0-0.7,1-1.6,1.1C90,34.5,89.7,34.5,89.4,34.2z
		 M89.3,34.1c-0.4-0.3-0.8-0.8-0.8-1.4c0-0.9,0.6-1.5,1.2-1.5c0.1,0,0.2,0,0.3,0.1c0.1-0.4,0.1-0.9,0.1-1.4c0-1.3-0.4-2.6-1.7-2.6
		c-4.2,0-5,7.4-5,8.6c0,1,0.1,3.6,1,3.6C86.3,39.4,88.5,36.3,89.3,34.1z"/>
	<path class="st0" d="M148,5.6c0,0.3-0.2,0.5-0.5,0.5s-0.4-0.2-0.4-0.5c0-0.1,0.1-0.3,0.2-0.4c-2.9,0.1-5.4,1.5-7.4,3.6
		c1.4,1.6,2,3.7,2,5.8c0,7.2-6.2,12.3-11.9,12.6c0-0.1,0.1-0.1,0.1-0.2c0.7,0,1.5-0.2,1.8-0.3c-0.7-0.2-1.4-0.2-2-0.2h-0.5
		c-0.4,0-1.9,0.1-2.2,0.3c0,0,0.1,0.1,0.3,0.1l0,0c0.4-0.1,1.9-0.1,2.4-0.1c-3.8,7.4-9.5,15.1-17.9,15.1c-6.3,0-9.3-4.5-9.3-10.6
		c0-8.3,5.9-18.1,14.7-18.1c1.7,0,3.2,0.5,4.4,1.6c1.5-4.8,5.8-8.3,11.9-8.3c2.3,0,4.5,0.6,6,2.3c2.4-2.3,4.6-3.4,7.8-3.5
		C147.8,5.2,148,5.4,148,5.6z M133.4,6.6c-5.7,0-10.1,3.6-11.5,8.3c1.6,1.5,2.2,3.8,2.2,6.2c5.3,0,2.7-10.5,9.9-10.5l0,0l0,0h-0.2
		c-4.6,0-3.9,10.6-9.9,10.6c-1.9,0-2.6-1.9-2.6-3.8c0-0.6,0.1-1.2,0.2-1.9c0.1,0.1,0.1,0.2,0.1,0.2c-0.1,0.6-0.2,1.1-0.2,1.7
		c0,1.1,0.3,2.5,1.2,3.2c0-0.4,0-0.8,0-1.2c0-3.7-1.8-6.1-5.4-6.1H117c-8.6,0.1-14.3,9.9-14.3,18.1c0,5.9,2.9,10.3,8.9,10.3
		c7.6,0,11.5-7.2,15.7-14.5c-0.4-0.1-0.4-0.2-0.4-0.3c0-0.2,0.6-0.3,0.8-0.4c2.8-4.9,7.1-12.9,11.4-17.3c0.1,0.1,0.1,0.2,0.2,0.3
		c-0.5,0.6-1.1,1.3-1.4,1.7c-3,4.2-4.9,9.3-7.8,15.2c1,0,1.5,0.2,1.9,0.4c4.8-1.9,8.4-9.7,8.4-14.1C140.4,8.5,137.6,6.6,133.4,6.6z
		 M123.9,21.5h0.3c-0.3,6.1-5.2,11.1-8.9,11.1c-3.1,0-4.7-2.1-4.7-4.5c0-1.5,0.7-2.3,0.8-2.3l0,0c0,0-0.8,0.7-0.8,2.3
		c0,2.3,1.6,4.4,4.6,4.4c4.7,0,6.9-6.5,7.4-11.3C123,21.4,123.4,21.5,123.9,21.5z M111.4,25c0-0.3,0.2-0.5,0.4-0.5
		c0.3,0,0.5,0.2,0.5,0.5s-0.2,0.5-0.5,0.5C111.6,25.5,111.4,25.3,111.4,25z M144.7,28.3c0-1.6-0.7-2.7-2.3-2.7c-3.5,0-4.6,5.5-4.6,9
		c0,3.1,0.9,8.1,4,8.4c-0.1-0.1-0.3-0.2-0.3-0.4c0-0.3,0.2-0.5,0.5-0.5s0.5,0.2,0.5,0.5s-0.2,0.5-0.5,0.5l0,0
		c-1.7,0-2.8-1.5-3.4-3.1c-0.8,0.6-1.8,1.1-2.8,1.1c-2.7,0-3.7-1.4-3.7-4.6c0-3.2,1.4-5.7,1.4-7.4c0-0.9-0.4-1.6-1-1.9
		c0.1,0,0.1,0,0.3-0.1c1.5,0.8,2,2.8,2,4.5c0,3.2-1.6,5.7-1.6,7.4c0,1.4,1,2,2.4,2c1.1,0,2.1-0.5,3-1.1c-0.6-1.6-0.8-3.5-0.8-5.3
		c0-3.6,1.2-9.1,4.8-9.1c1.7,0,2.5,1.2,2.5,2.9c0,3.4-2.8,8.9-6.1,11.4c0-0.1-0.1-0.1-0.1-0.2C141.9,37.1,144.7,31.6,144.7,28.3z"/>
	<path class="st0" d="M152.6,34.2c-0.8,2.2-2.8,5.4-5.2,5.4c-1.9,0-2.6-2.6-2.6-4.5c0-3.4,2.7-8.1,6.8-8.1c1.5,0,1.9,1.4,1.9,2.9
		c0,1.3-0.3,2.6-0.7,3.8c0.1,0.4,0.6,0.6,0.9,0.6c0.8,0,1.4-1,1.4-1l0.2,0.1c0,0-0.7,1-1.6,1.1C153.2,34.5,152.8,34.5,152.6,34.2z
		 M152.4,34.1c-0.4-0.3-0.8-0.8-0.8-1.4c0-0.9,0.6-1.5,1.2-1.5c0.1,0,0.2,0,0.3,0.1c0.1-0.4,0.1-0.9,0.1-1.4c0-1.3-0.4-2.6-1.7-2.6
		c-4.2,0-5,7.4-5,8.6c0,1,0.1,3.6,1,3.6C149.5,39.4,151.6,36.3,152.4,34.1z"/>
	<path class="st0" d="M171,33.4c-1.8,2.6-3.9,4.8-6.4,6.7c-2,4.9-7.2,15.4-12.4,15.4c-2,0-3.6-1.2-3.6-3c0-5.8,6.2-6.5,12.9-10.6
		c1.6-3.6,3.1-6.6,5.1-10c-2.2,3.1-4.9,7.7-7.1,7.7c-1.2,0-1.6-0.8-1.6-2c0-5.4,3.6-8.2,3.6-9.7c0-0.4-0.3-0.6-0.6-0.6h-0.1
		c-1.5,0-3.6,3.2-5.5,6.1l-0.2-0.1c2.1-3.2,4.1-6.2,5.7-6.2c0.5,0.1,1.3,0,1.3,1.7c0,4.8-3.7,7.7-3.7,9.7c0,0.7,0.5,1,1.3,1
		c3,0,8.7-12.4,11.3-12.4c0.3,0,0.5,0.2,0.5,0.5s-0.2,0.5-0.5,0.5s-0.4-0.2-0.4-0.5v-0.1c-2.3,1.2-3.5,6.7-5.7,12.4
		C167.3,38,169.2,36,171,33.4L171,33.4z M152,55.4c4.1,0,6.8-7.2,9.4-13.1c-6.5,3.9-12.6,4.7-12.6,10.3
		C148.8,54,150.2,55.4,152,55.4L152,55.4z"/>
	<path class="st0" d="M185.3,33.3l0.2,0.1c-2.8,4.3-4.2,6.2-5.9,6.2c-1.4,0-1.8-1.5-1.8-2.9c0-0.8,0.1-1.6,0.4-2.5
		c-1.1,2.1-3.2,5.5-5.6,5.5c-1.6,0-2.1-2-2.1-3.6c0-5.1,3.9-9.1,6.8-9.1c1.8,0,2.3,1.3,2.3,3.1c0,0.3,0,0.7-0.1,1.2
		c0.7-1.3,3.2-4.2,4.4-4.2c0.1,0,0.3,0.1,0.3,0.3c0,0.2-0.1,0.3-0.3,0.3s-0.3-0.1-0.3-0.3l0,0c-2.6,1.1-4.9,10-4.9,10.8
		c0,0.9,0.5,1.4,1.2,1.4C181.5,39.4,184.2,35,185.3,33.3z M179.1,31.6c0.1-0.4,0.2-1.1,0.2-1.7c0-1.3-0.5-2.6-1.8-2.6
		c-2.8,0-6.1,9-6.1,10.6l0,0c0,0.8,0.4,1.4,1.2,1.4C175.4,39.4,178.2,34.1,179.1,31.6z"/>
	<path class="st0" d="M191.6,33.3l0.2,0.1c-1.1,1.7-3.7,6.3-5.8,6.3c-1,0-1.2-1.3-1.2-2.4c0-10.5,11.2-25.4,19.7-25.5
		c0.3,0,0.5,0.2,0.5,0.5s-0.2,0.5-0.5,0.5s-0.5-0.2-0.5-0.5c0-0.1,0-0.2,0.1-0.3c-9.3,0-18.8,21.9-18.8,26.2c0,1,0.4,1.2,0.8,1.2
		C187.4,39.4,189.5,36.8,191.6,33.3z"/>
	<path class="st0" d="M193.7,33.4c-0.6,1.4-1.3,3-1.3,4.3c0,1.1,0.8,1.7,1.9,1.7c2.3,0,4.4-3,6.3-6.1l0.2,0.1
		c-1.7,2.8-3.8,6.2-6.5,6.2c-1.9,0-3.1-1.1-3.1-4.1c0-3.1,1.9-6.4,5.1-8c0.6-0.3,1.2-0.5,1.9-0.5c1.3,0,1.9,0.7,1.9,1.8
		C200.1,30.7,198.2,33.1,193.7,33.4z M193.8,33.2c4.3-0.4,6.1-2.6,6.1-4.4c0-1-0.7-1.6-1.4-1.6C196.3,27.3,194.7,31.3,193.8,33.2z"
		/>
	<path class="st0" d="M275.1,9.2c0,4.6-4.5,7.9-8.3,7.9l0,0l0,0l0,0c4.5,0,7.5-6.6,7.5-9c0-2.2-1.7-3.2-3.9-3.2
		c-11.8,0-30.7,31.5-30.7,36.3c0,0.3,0.1,0.5,0.3,0.5c1.7,0,2.7-6,2.9-7.9c0.6-1.1,1.3-2.2,2-3.5c-1.7,5.6-3.1,11.6-4.9,11.6
		c-0.4,0-0.5-0.3-0.5-0.7c0-1.9,2.7-6.9,3.6-8.6c1-7.7,4.5-22.2,10.9-24.6c-13.1,4.2-14.5,37.5-33.3,37.5c-6.2,0-9.3-4.5-9.3-10.6
		c0-8.6,6.1-18.1,14.7-18.1c4.5,0,6.8,3.5,6.8,7.8l0,0c0,6-4.9,11.6-8.9,11.6c-3,0-4.5-2.3-4.5-4.5l0,0l0,0c0.1,2.5,1.7,4.3,4.3,4.3
		c5.3,0,7.5-8.4,7.5-13.1c0-3.8-1.8-6.1-5.6-6.1c-8.5,0-14.3,9.7-14.3,18.1c0,5.9,2.9,10.2,8.9,10.2c12.7,0,16.7-22.3,28.1-33.7
		c-0.4,0.2-0.9,0.3-1.4,0.3c-3.5,0-5.9-6.4-10.5-6.4s-7.4,3.7-7.4,7.2c0,3.3,2.4,5.9,6.8,5.9c4.5,0,6.8-4.9,6.8-7
		c0-0.3-0.3-0.7-0.3-0.7l0,0l0,0c0.3,0.4,0.5,1.6,0.5,2.3c0,3.9-4.6,5.7-7,5.7c-3.9,0-7-2.2-7-6.1c0-3.6,2.9-7.4,7.5-7.4
		c4.3,0,6.7,5.5,9.7,6.3c0.3,0.1,0.5,0.1,0.7,0.1c2.5,0,4.3-4,9.4-4.2c0.3,0,0.5,0.2,0.5,0.5s-0.2,0.4-0.5,0.4s-0.5-0.2-0.5-0.4
		c0-0.1,0-0.2,0.1-0.3c-7.3,0.3-8.1,11.8-10.7,21.1c4.6-7.6,16.3-24,25.1-24C273.6,4.7,275.1,6.5,275.1,9.2z M219.6,30.6
		c-0.3,0-0.4-0.2-0.4-0.4c0-0.3,0.2-0.5,0.4-0.5c0.3,0,0.5,0.2,0.5,0.5C220.1,30.4,219.9,30.6,219.6,30.6z M246,40.7
		c-0.6,0.5-1.2,0.8-1.9,1c6.3,0.5,7.7,3.4,10.3,3.4c1.4,0,2.4-1.4,2.5-2.8l0,0l0,0c0,0,0,0.2,0,0.3c-0.5,2.3-1.8,2.8-4,2.8
		c-3.9,0-4.9-3.6-9.6-3.6c-0.1,0-0.1,0-0.1-0.1s0-0.1,0.1-0.1c0.9,0,1.7-0.2,2.6-1.1c3.1-3.1,7.9-24.8,17.6-32.2
		C255.1,15,253.9,34.3,246,40.7z M265.1,7.2c-0.6,0.3-1.1,0.7-1.7,1.1C263.9,7.9,264.5,7.5,265.1,7.2z"/>
	<path class="st0" d="M269.5,33.3l0.2,0.1c-2.8,4.3-4.2,6.2-5.9,6.2c-1.4,0-1.8-1.5-1.8-2.9c0-0.8,0.1-1.6,0.4-2.5
		c-1.1,2.1-3.2,5.5-5.6,5.5c-1.6,0-2.1-2-2.1-3.6c0-5.1,3.9-9.1,6.8-9.1c1.8,0,2.3,1.3,2.3,3.1c0,0.3,0,0.7-0.1,1.2
		c0.7-1.3,3.2-4.2,4.4-4.2c0.1,0,0.3,0.1,0.3,0.3c0,0.2-0.1,0.3-0.3,0.3c-0.2,0-0.3-0.1-0.3-0.3l0,0c-2.6,1.1-4.9,10-4.9,10.8
		c0,0.9,0.5,1.4,1.2,1.4C265.7,39.4,268.4,35,269.5,33.3z M263.3,31.6c0.1-0.4,0.2-1.1,0.2-1.7c0-1.3-0.5-2.6-1.8-2.6
		c-2.8,0-6.1,9-6.1,10.6l0,0c0,0.8,0.4,1.4,1.3,1.4C259.6,39.4,262.4,34.1,263.3,31.6z"/>
	<path class="st0" d="M279,33.4c-2.1,3.2-4.1,6.2-5.7,6.2c-0.4,0-1.1,0-1.1-1.4c0-4.4,2.5-7.2,2.5-9c0-0.9-1.2-1.4-1.7-2.6
		c-0.8,2.1-2,4.7-3.3,6.8l-0.2-0.1c1.3-2.2,2.5-4.8,3.3-7c-0.1-0.4-0.2-0.9-0.2-1.3c0-0.6,0.2-1.3,0.5-1.8h1.2c-0.3,1.6-1,2.9-1,3.4
		c0,1.3,2.1,0.9,2.1,5.4c0,3.5-2.7,5.7-2.7,7c0,0.4,0.3,0.5,0.6,0.5c1.5,0,3.6-3.2,5.5-6.1L279,33.4z"/>
	<path class="st0" d="M292.6,26.5c0,0.5-0.2,1.1-0.7,1.1c-0.4,0-0.6-0.3-0.6-0.6c0-0.1,0.1-0.8,0.1-1c0-1-0.9-1.2-1.4-1.2
		c-3.7,0-7.1,5.3-8.8,8.5c1.2-1.5,2.3-2.3,4.1-2.3c1.5,0,2,1.3,2,2.8c0,2.8-1.8,4.7-1.8,5.9c0,0.4,0.3,0.5,0.5,0.5c2.1,0,5-5,6-6.8
		l0.2,0.1c-2.1,3.6-4.4,6.8-6.2,6.8c-0.6,0-1-0.4-1-1.9c0-3,1.2-4.8,1.2-6.1c0-1-1-1.2-1.3-1.2c-3.4,0-5.8,6.5-6.5,8.6h-2.2
		c3.3-8.4,12.2-27.8,22.6-27.8c0.3,0,0.5,0.2,0.5,0.5s-0.2,0.5-0.5,0.5s-0.5-0.2-0.5-0.5c0-0.1,0-0.2,0.1-0.3
		c-7.7,0.2-13.9,13.5-17,20.5c2-3.5,5.2-8.2,9.3-8.2C292,24.4,292.6,25.5,292.6,26.5z"/>
	<path class="st0" d="M294.1,33.4c-0.6,1.4-1.3,3-1.3,4.3c0,1.1,0.8,1.7,1.9,1.7c2.3,0,4.4-3,6.3-6.1l0.2,0.1
		c-1.7,2.8-3.8,6.2-6.5,6.2c-1.9,0-3.1-1.1-3.1-4.1c0-3.1,1.9-6.4,5.1-8c0.6-0.3,1.2-0.5,1.9-0.5c1.3,0,1.9,0.7,1.9,1.8
		C300.5,30.7,298.5,33.1,294.1,33.4z M294.2,33.2c4.3-0.4,6.1-2.6,6.1-4.4c0-1-0.7-1.6-1.4-1.6C296.7,27.3,295,31.3,294.2,33.2z"/>
	<path class="st0" d="M309.4,27.5c0,0.3-0.2,0.5-0.5,0.5l0,0c-0.2,0-0.4-0.2-0.4-0.4v-0.1c0-0.2,0.1-0.3,0.3-0.4
		c-0.2-0.1-0.5-0.1-0.8-0.1c-0.4,0-1,0.1-1.7,0.3c-2.4,4-5.3,9.3-5.3,11c0,0.9,0.5,1.2,1.1,1.2c1.7,0,4.7-4.7,5.5-6.1l0.2,0.1
		c-1,1.5-3.9,6.2-5.7,6.2c-1,0-2.1-0.4-2.1-2c0-2.8,2.1-7.1,3.6-9.8c-0.3,0-0.5,0.1-0.8,0.1c-1,0-1.8-0.5-1.8-0.9
		c0-0.3,0.2-0.5,0.5-0.5l0,0c0.2,0,0.4,0.2,0.4,0.4l0,0c0,0.2-0.1,0.4-0.3,0.4c0.3,0.2,0.8,0.3,1.2,0.3c0.3,0,0.6,0,0.9-0.1
		c0.7-1.3,1.2-2.1,1.2-2.1s1.1-0.2,2-0.9c1.1-0.8,2.1-2.1,2.2-2.1c0,0-1.2,1.9-2.8,4.5c0.6-0.1,1.2-0.3,1.6-0.3
		C308.7,26.7,309.4,27.1,309.4,27.5z"/>
	<path class="st0" d="M319.7,39.4c1.5,0,3.6-3.2,5.5-6.1l0.2,0.1c-2.1,3.2-4.1,6.2-5.7,6.2c-0.6,0-1.5-0.1-1.5-1.8
		c0-4.5,3.2-7.5,3.2-9.3c0-0.9-0.6-1.2-1.5-1.2c-4.2,0-7.8,11.8-14.1,24.6c0,0-0.1,0-0.2,0c-0.2,0-0.6,0-1,0.2
		c-1.1,0.4-2.3,2.3-2.3,2.3c4.4-9.1,11.7-21.4,11.7-26c0-0.8-0.3-1.1-0.7-1.1c-1.4,0-3.8,3.3-5.6,6.1l-0.2-0.1
		c0.8-1.1,3.9-6.2,5.7-6.2l0,0c0.2,0,1.1,0.1,1.1,1.9c0,1.5-0.5,3.6-1.3,6c1.8-3.3,3.8-7.9,6.8-7.9c1.7,0,2.2,1,2.2,2.6
		c0,4.7-3.3,7.5-3.3,9C318.9,39.4,319.5,39.4,319.7,39.4L319.7,39.4z"/>
	<path class="st0" d="M331.6,33.3l0.2,0.1c-1.1,1.7-3.7,6.3-5.8,6.3c-1,0-1.2-1.3-1.2-2.4c0-10.5,11.2-25.4,19.7-25.5
		c0.3,0,0.5,0.2,0.5,0.5s-0.2,0.5-0.5,0.5s-0.5-0.2-0.5-0.5c0-0.1,0-0.2,0.1-0.3c-9.3,0-18.8,21.9-18.8,26.2c0,1,0.4,1.2,0.8,1.2
		C327.4,39.4,329.4,36.8,331.6,33.3z"/>
	<path class="st0" d="M346,33.3l0.2,0.1c-2.8,4.3-4.2,6.2-5.9,6.2c-1.4,0-1.8-1.5-1.8-2.9c0-0.8,0.1-1.6,0.4-2.5
		c-1.1,2.1-3.2,5.5-5.6,5.5c-1.6,0-2.1-2-2.1-3.6c0-5.1,3.9-9.1,6.8-9.1c1.8,0,2.3,1.3,2.3,3.1c0,0.3,0,0.7-0.1,1.2
		c0.7-1.3,3.2-4.2,4.4-4.2c0.1,0,0.3,0.1,0.3,0.3c0,0.2-0.1,0.3-0.3,0.3c-0.2,0-0.3-0.1-0.3-0.3l0,0c-2.6,1.1-4.9,10-4.9,10.8
		c0,0.9,0.5,1.4,1.2,1.4C342.2,39.4,344.9,35,346,33.3z M339.9,31.6c0.1-0.4,0.2-1.1,0.2-1.7c0-1.3-0.5-2.6-1.8-2.6
		c-2.8,0-6.1,9-6.1,10.6l0,0c0,0.8,0.4,1.4,1.2,1.4C336.1,39.4,338.9,34.1,339.9,31.6z"/>
	<path class="st0" d="M355.5,33.3l0.2,0.1c-1.7,2.9-3.9,6.2-6.5,6.2c-1.9,0-3.5-1.5-3.5-4.2c0-4.4,4.4-8.4,6.9-8.4
		c1.2,0,1.7,0.9,1.7,2.1c0,1.6-0.9,3.6-2,3.6c-0.1,0-0.3-0.1-0.3-0.3s0.1-0.3,0.3-0.3s0.3,0.1,0.3,0.3c0.8-0.3,1.5-1.9,1.5-3.3
		c0-1.1-0.4-1.9-1.5-1.9c-3.5,0-5.4,7.9-5.4,10.2c0,1.3,0.9,2,1.9,2C351.3,39.4,353.6,36.5,355.5,33.3z"/>
	<path class="st0" d="M357.6,33.4c-0.6,1.4-1.3,3-1.3,4.3c0,1.1,0.8,1.7,1.9,1.7c2.3,0,4.4-3,6.3-6.1l0.2,0.1
		c-1.7,2.8-3.8,6.2-6.5,6.2c-1.9,0-3.1-1.1-3.1-4.1c0-3.1,1.9-6.4,5.1-8c0.6-0.3,1.2-0.5,1.9-0.5c1.3,0,1.9,0.7,1.9,1.8
		C364,30.7,362,33.1,357.6,33.4z M357.7,33.2c4.3-0.4,6.1-2.6,6.1-4.4c0-1-0.7-1.6-1.4-1.6C360.2,27.3,358.5,31.3,357.7,33.2z"/>
</g>
<g>
	<path class="st1" d="M420.2,19.9c-0.2-2-1.5-3.8-3.4-4.7l-21.3-9.4c-1.7-0.7-3.6-0.3-4.8,1.1l-11.6,13.7c-1.1,1.4-1.8,3.1-1.8,4.9
		l-0.1,16.2c0,1.7,1,3.2,2.6,3.9l22.1,8.6c1.9,0.7,4.1,0.3,5.5-1.2l13.1-13.3c0.9-0.9,1.3-2.1,1.2-3.3L420.2,19.9z M378.2,42.1
		L378.2,42.1c-0.2-0.1-0.3-0.5-0.3-1.2l0.1-14.4c0-1.9,1.1-4.7,2.3-6.2l10.6-12.5c0.5-0.6,0.8-0.7,1-0.7c0.1,0,0.3,0.3,0.4,1.2
		l0.4,14.5c0.1,1.9-1,4.7-2.2,6.1l-11.2,12.6C378.6,42.1,378.2,42.1,378.2,42.1z M418.8,40.5l-11.6,11.7c-0.9,0.9-2.3,1.4-3.8,1.4
		l0,0c-0.6,0-1.1-0.1-1.6-0.3l-21-8.1c-0.7-0.3-1.2-0.7-1.3-1.3c-0.1-0.6,0.1-1.2,0.6-1.8l11.2-12.6c0.8-0.9,2.2-1.5,3.6-1.5
		c0.6,0,1.1,0.1,1.6,0.3l21.7,9.1c0.7,0.3,1.2,0.8,1.3,1.3C419.6,39.4,419.4,40,418.8,40.5z M420.6,36.2c-0.2,0.2-0.5,0.3-0.9,0.3
		l0,0c-0.3,0-0.6-0.1-1-0.2l-21.7-9c-1.7-0.7-3.1-2.8-3.1-4.6l-0.4-14.5c0-0.6,0.1-1.2,0.4-1.5c0.2-0.2,0.5-0.4,0.9-0.4
		c0.3,0,0.6,0.1,1,0.2l20.4,9c1.7,0.7,3.2,2.9,3.4,4.7l1.3,14.4C421,35.4,420.9,35.9,420.6,36.2z"/>
	<path class="st0" d="M419.6,20.4c-0.2-1.8-1.7-3.9-3.4-4.7l-20.4-9c-0.4-0.2-0.7-0.2-1-0.2c-0.4,0-0.7,0.1-0.9,0.4
		c-0.3,0.3-0.5,0.8-0.4,1.5l0.4,14.5c0.1,1.8,1.5,3.9,3.1,4.6l21.7,9c0.3,0.1,0.7,0.2,1,0.2l0,0c0.4,0,0.7-0.1,0.9-0.3
		c0.3-0.3,0.4-0.8,0.3-1.5L419.6,20.4z M396.2,10.7c0-0.3,0.1-0.5,0.2-0.7s0.3-0.3,0.6-0.4c0.2-0.1,0.6-0.1,0.9-0.1s0.7,0.1,1.1,0.3
		s0.8,0.4,1.1,0.7c0.3,0.3,0.7,0.5,0.9,0.9c0.3,0.3,0.5,0.6,0.6,0.9c0.2,0.3,0.2,0.6,0.3,0.9c0,0.3,0,0.5-0.2,0.7
		c-0.1,0.2-0.3,0.3-0.6,0.4c-0.2,0.1-0.5,0.1-0.9,0.1c-0.3,0-0.7-0.1-1.1-0.3s-0.8-0.4-1.1-0.7c-0.3-0.3-0.7-0.6-0.9-0.9
		c-0.3-0.3-0.5-0.6-0.6-1C396.3,11.3,396.2,11,396.2,10.7z M402.3,26.2c-0.1,0.2-0.3,0.4-0.6,0.5c-0.3,0.1-0.6,0.1-0.9,0.1
		s-0.7-0.1-1.1-0.3c-0.4-0.2-0.8-0.4-1.2-0.7c-0.4-0.3-0.7-0.6-1-0.9s-0.5-0.7-0.7-1s-0.3-0.7-0.3-1s0.1-0.6,0.2-0.8
		c0.1-0.2,0.3-0.4,0.6-0.5c0.3-0.1,0.6-0.1,0.9-0.1s0.7,0.1,1.1,0.3c0.4,0.2,0.8,0.4,1.1,0.7c0.4,0.3,0.7,0.6,0.9,0.9
		c0.3,0.3,0.5,0.7,0.7,1s0.3,0.7,0.3,1C402.5,25.7,402.5,26,402.3,26.2z M409.8,23.3c-0.1,0.2-0.3,0.4-0.6,0.4
		c-0.2,0.1-0.5,0.1-0.9,0.1c-0.3,0-0.7-0.1-1.1-0.3c-0.4-0.2-0.8-0.4-1.1-0.6c-0.3-0.3-0.7-0.6-0.9-0.9c-0.3-0.3-0.5-0.6-0.7-1
		c-0.2-0.3-0.3-0.7-0.3-1s0-0.6,0.2-0.8c0.1-0.2,0.3-0.4,0.6-0.4c0.2-0.1,0.5-0.1,0.9-0.1c0.3,0,0.7,0.1,1.1,0.3
		c0.4,0.2,0.8,0.4,1.1,0.6c0.3,0.3,0.7,0.5,0.9,0.9c0.3,0.3,0.5,0.6,0.6,1c0.2,0.3,0.3,0.7,0.3,1C410,22.9,410,23.1,409.8,23.3z
		 M411.7,17.4c0-0.3,0-0.5,0.2-0.7c0.1-0.2,0.3-0.3,0.5-0.4s0.5-0.1,0.8-0.1s0.7,0.1,1.1,0.3c0.4,0.2,0.7,0.4,1.1,0.6
		c0.3,0.3,0.6,0.5,0.9,0.8s0.5,0.6,0.6,0.9c0.2,0.3,0.3,0.6,0.3,0.9s0,0.5-0.1,0.7s-0.3,0.3-0.5,0.4s-0.5,0.1-0.8,0.1
		s-0.7-0.1-1.1-0.3c-0.4-0.2-0.7-0.4-1.1-0.6c-0.3-0.3-0.6-0.5-0.9-0.8s-0.5-0.6-0.6-0.9C411.8,18.1,411.7,17.7,411.7,17.4z
		 M418,32.8c-0.1,0.2-0.3,0.4-0.5,0.5s-0.5,0.1-0.9,0.1c-0.3,0-0.7-0.1-1.1-0.3s-0.8-0.4-1.1-0.6c-0.3-0.3-0.7-0.6-0.9-0.9
		c-0.3-0.3-0.5-0.7-0.7-1s-0.3-0.7-0.3-1s0-0.6,0.2-0.8c0.1-0.2,0.3-0.4,0.6-0.5c0.2-0.1,0.5-0.1,0.9-0.1c0.3,0,0.7,0.1,1.1,0.3
		c0.4,0.2,0.8,0.4,1.1,0.6c0.3,0.3,0.7,0.5,0.9,0.9c0.3,0.3,0.5,0.6,0.7,1c0.2,0.3,0.3,0.7,0.3,1C418.2,32.3,418.2,32.6,418,32.8z"
		/>
	<path class="st2" d="M409.7,21.6c-0.2-0.3-0.4-0.7-0.6-1c-0.3-0.3-0.6-0.6-0.9-0.9s-0.7-0.5-1.1-0.6c-0.4-0.2-0.8-0.3-1.1-0.3
		c-0.3,0-0.6,0-0.9,0.1c-0.2,0.1-0.4,0.2-0.6,0.4c-0.1,0.2-0.2,0.5-0.2,0.8s0.1,0.6,0.3,1c0.2,0.3,0.4,0.7,0.7,1
		c0.3,0.3,0.6,0.6,0.9,0.9s0.7,0.5,1.1,0.6c0.4,0.2,0.8,0.3,1.1,0.3c0.3,0,0.6,0,0.9-0.1c0.2-0.1,0.4-0.2,0.6-0.4
		c0.1-0.2,0.2-0.5,0.2-0.8C410,22.2,409.9,21.9,409.7,21.6z"/>
	<path class="st2" d="M413.5,20.2c0.3,0.3,0.7,0.5,1.1,0.6c0.4,0.2,0.7,0.3,1.1,0.3c0.3,0,0.6,0,0.8-0.1c0.2-0.1,0.4-0.2,0.5-0.4
		c0.1-0.2,0.2-0.4,0.1-0.7c0-0.3-0.1-0.6-0.3-0.9c-0.2-0.3-0.4-0.6-0.6-0.9c-0.3-0.3-0.6-0.6-0.9-0.8c-0.3-0.3-0.7-0.5-1.1-0.6
		c-0.4-0.2-0.7-0.3-1.1-0.3c-0.3,0-0.6,0-0.8,0.1c-0.2,0.1-0.4,0.2-0.5,0.4c-0.1,0.2-0.2,0.4-0.2,0.7c0,0.3,0.1,0.6,0.3,0.9
		c0.2,0.3,0.4,0.6,0.6,0.9C412.8,19.6,413.2,19.9,413.5,20.2z"/>
	<path class="st2" d="M402.2,24.4c-0.2-0.3-0.4-0.7-0.7-1c-0.3-0.3-0.6-0.6-0.9-0.9c-0.4-0.3-0.7-0.5-1.1-0.7s-0.8-0.3-1.1-0.3
		c-0.3,0-0.7,0-0.9,0.1c-0.3,0.1-0.5,0.2-0.6,0.5c-0.1,0.2-0.2,0.5-0.2,0.8s0.1,0.7,0.3,1c0.2,0.3,0.4,0.7,0.7,1
		c0.3,0.3,0.6,0.6,1,0.9s0.7,0.5,1.2,0.7c0.4,0.2,0.8,0.3,1.1,0.3c0.3,0,0.7,0,0.9-0.1c0.3-0.1,0.5-0.3,0.6-0.5s0.2-0.5,0.2-0.8
		C402.5,25.1,402.4,24.7,402.2,24.4z"/>
	<path class="st2" d="M417.9,31c-0.2-0.3-0.4-0.7-0.7-1c-0.3-0.3-0.6-0.6-0.9-0.9s-0.7-0.5-1.1-0.6c-0.4-0.2-0.8-0.3-1.1-0.3
		c-0.3,0-0.6,0-0.9,0.1c-0.2,0.1-0.4,0.3-0.6,0.5c-0.1,0.2-0.2,0.5-0.2,0.8s0.1,0.6,0.3,1c0.2,0.3,0.4,0.7,0.7,1
		c0.3,0.3,0.6,0.6,0.9,0.9s0.7,0.5,1.1,0.6c0.4,0.2,0.8,0.3,1.1,0.3c0.3,0,0.6,0,0.9-0.1c0.2-0.1,0.4-0.3,0.5-0.5s0.2-0.5,0.1-0.8
		C418.2,31.7,418,31.4,417.9,31z"/>
	<path class="st2" d="M398,13.5c0.3,0.3,0.7,0.5,1.1,0.7s0.8,0.3,1.1,0.3c0.3,0,0.6,0,0.9-0.1c0.2-0.1,0.4-0.2,0.6-0.4
		c0.1-0.2,0.2-0.4,0.2-0.7s-0.1-0.6-0.3-0.9c-0.2-0.3-0.4-0.6-0.6-0.9c-0.3-0.3-0.6-0.6-0.9-0.9c-0.3-0.3-0.7-0.5-1.1-0.7
		s-0.8-0.3-1.1-0.3c-0.3,0-0.6,0-0.9,0.1s-0.5,0.2-0.6,0.4s-0.2,0.4-0.2,0.7s0.1,0.6,0.3,0.9c0.2,0.3,0.4,0.6,0.6,1
		C397.4,12.9,397.7,13.2,398,13.5z"/>
	<path class="st3" d="M418.2,37.5l-21.7-9.1c-0.5-0.2-1-0.3-1.6-0.3c-1.4,0-2.8,0.6-3.6,1.5l-11.2,12.6c-0.5,0.6-0.7,1.2-0.6,1.8
		s0.6,1,1.3,1.3l21,8.1c0.5,0.2,1,0.3,1.6,0.3l0,0c1.4,0,2.9-0.6,3.8-1.4l11.6-11.7c0.5-0.5,0.8-1.1,0.7-1.7
		C419.4,38.3,419,37.8,418.2,37.5z M390.3,43.6c0,0.3-0.2,0.5-0.4,0.8c-0.2,0.2-0.5,0.4-0.9,0.6c-0.3,0.2-0.7,0.3-1.1,0.3
		c-0.4,0.1-0.8,0.1-1.3,0c-0.4,0-0.9-0.1-1.3-0.3s-0.7-0.4-1-0.6c-0.3-0.2-0.5-0.5-0.6-0.7c-0.1-0.3-0.2-0.5-0.1-0.8
		c0-0.3,0.2-0.5,0.4-0.8c0.2-0.2,0.5-0.4,0.9-0.6c0.3-0.2,0.7-0.3,1.1-0.3c0.4-0.1,0.8-0.1,1.3,0c0.4,0,0.9,0.1,1.3,0.3
		s0.7,0.4,1,0.6c0.3,0.2,0.5,0.5,0.6,0.7S390.3,43.3,390.3,43.6z M398.1,46.7c-0.1,0.3-0.2,0.5-0.4,0.8c-0.2,0.2-0.5,0.4-0.9,0.6
		c-0.3,0.1-0.7,0.3-1.1,0.3c-0.4,0.1-0.8,0.1-1.2,0c-0.4,0-0.8-0.1-1.2-0.3c-0.4-0.2-0.7-0.3-1-0.6c-0.3-0.2-0.4-0.5-0.6-0.7
		c-0.1-0.3-0.1-0.5-0.1-0.8s0.2-0.5,0.4-0.8c0.2-0.2,0.5-0.4,0.9-0.6c0.3-0.2,0.7-0.3,1.1-0.3c0.4-0.1,0.8-0.1,1.3,0
		c0.4,0,0.8,0.1,1.2,0.3c0.4,0.2,0.7,0.4,1,0.6c0.3,0.2,0.4,0.5,0.5,0.7C398.1,46.2,398.2,46.4,398.1,46.7z M398.1,35.1
		c-0.4,0.2-0.7,0.3-1.2,0.3c-0.4,0.1-0.9,0.1-1.3,0c-0.4,0-0.9-0.2-1.3-0.3c-0.4-0.2-0.7-0.4-1-0.6c-0.3-0.2-0.5-0.5-0.6-0.8
		s-0.1-0.6-0.1-0.8c0.1-0.3,0.2-0.6,0.4-0.8c0.2-0.3,0.5-0.5,0.9-0.6c0.4-0.2,0.8-0.3,1.2-0.3c0.4-0.1,0.9-0.1,1.3,0
		s0.9,0.2,1.3,0.3c0.4,0.2,0.7,0.4,1,0.6s0.5,0.5,0.6,0.8s0.1,0.6,0.1,0.8c-0.1,0.3-0.2,0.6-0.4,0.8
		C398.8,34.7,398.5,34.9,398.1,35.1z M405.8,49.7c-0.1,0.3-0.2,0.5-0.4,0.7c-0.2,0.2-0.5,0.4-0.9,0.6c-0.3,0.1-0.7,0.3-1.1,0.3
		c-0.4,0.1-0.8,0.1-1.2,0c-0.4,0-0.8-0.1-1.2-0.3c-0.4-0.2-0.7-0.3-1-0.6c-0.3-0.2-0.4-0.5-0.5-0.7c-0.1-0.3-0.1-0.5-0.1-0.8
		c0.1-0.3,0.2-0.5,0.4-0.8c0.2-0.2,0.5-0.4,0.9-0.6c0.3-0.2,0.7-0.3,1.1-0.3c0.4-0.1,0.8-0.1,1.3,0c0.4,0,0.8,0.1,1.2,0.3
		c0.4,0.2,0.7,0.3,1,0.6c0.2,0.2,0.4,0.5,0.5,0.7C405.9,49.2,405.9,49.5,405.8,49.7z M407.4,36.9c-0.1,0.3-0.2,0.5-0.4,0.8
		c-0.2,0.3-0.5,0.5-0.9,0.6c-0.4,0.2-0.7,0.3-1.2,0.3c-0.4,0.1-0.8,0.1-1.3,0c-0.4,0-0.9-0.2-1.3-0.3c-0.4-0.2-0.7-0.4-1-0.6
		c-0.3-0.2-0.4-0.5-0.6-0.8c-0.1-0.3-0.1-0.6-0.1-0.8c0.1-0.3,0.2-0.6,0.4-0.8c0.2-0.3,0.5-0.5,0.9-0.6c0.4-0.2,0.8-0.3,1.2-0.3
		c0.4-0.1,0.9-0.1,1.3,0c0.4,0,0.9,0.2,1.3,0.3c0.4,0.2,0.7,0.4,1,0.6c0.3,0.2,0.4,0.5,0.5,0.8C407.5,36.3,407.5,36.6,407.4,36.9z
		 M415.3,40.1c-0.1,0.3-0.2,0.5-0.5,0.8c-0.2,0.2-0.5,0.4-0.9,0.6c-0.4,0.2-0.7,0.3-1.2,0.3c-0.4,0.1-0.8,0.1-1.3,0
		c-0.4,0-0.8-0.1-1.2-0.3c-0.4-0.2-0.7-0.4-1-0.6c-0.3-0.2-0.4-0.5-0.5-0.8s-0.1-0.5-0.1-0.8c0.1-0.3,0.2-0.5,0.4-0.8
		c0.2-0.2,0.5-0.5,0.9-0.6c0.4-0.2,0.7-0.3,1.2-0.3c0.4-0.1,0.9-0.1,1.3,0c0.4,0,0.9,0.2,1.2,0.3c0.4,0.2,0.7,0.4,1,0.6
		c0.2,0.2,0.4,0.5,0.5,0.8C415.3,39.6,415.3,39.8,415.3,40.1z"/>
	<path class="st2" d="M397.5,45.2c-0.3-0.2-0.6-0.4-1-0.6c-0.4-0.2-0.8-0.3-1.2-0.3c-0.4,0-0.9,0-1.3,0c-0.4,0.1-0.8,0.2-1.1,0.3
		c-0.3,0.2-0.6,0.4-0.9,0.6c-0.2,0.2-0.4,0.5-0.4,0.8s0,0.5,0.1,0.8s0.3,0.5,0.6,0.7c0.3,0.2,0.6,0.4,1,0.6c0.4,0.2,0.8,0.3,1.2,0.3
		c0.4,0,0.8,0,1.2,0c0.4-0.1,0.8-0.2,1.1-0.3c0.3-0.2,0.6-0.3,0.9-0.6c0.2-0.2,0.4-0.5,0.4-0.8c0.1-0.3,0-0.5-0.1-0.8
		C397.9,45.6,397.7,45.4,397.5,45.2z"/>
	<path class="st2" d="M389.6,42c-0.3-0.2-0.6-0.4-1-0.6c-0.4-0.2-0.8-0.3-1.3-0.3c-0.4,0-0.9,0-1.3,0c-0.4,0.1-0.8,0.2-1.1,0.3
		c-0.3,0.2-0.6,0.4-0.9,0.6c-0.2,0.2-0.4,0.5-0.4,0.8s0,0.5,0.1,0.8s0.3,0.5,0.6,0.7c0.3,0.2,0.6,0.4,1,0.6c0.4,0.2,0.8,0.3,1.3,0.3
		c0.4,0,0.9,0,1.3,0c0.4-0.1,0.8-0.2,1.1-0.3c0.3-0.2,0.6-0.4,0.9-0.6c0.2-0.2,0.4-0.5,0.4-0.8s0-0.5-0.1-0.8
		C390.1,42.5,389.9,42.3,389.6,42z"/>
	<path class="st2" d="M405.2,48.2c-0.2-0.2-0.6-0.4-1-0.6c-0.4-0.2-0.8-0.3-1.2-0.3c-0.4,0-0.8,0-1.3,0c-0.4,0.1-0.8,0.2-1.1,0.3
		c-0.3,0.2-0.6,0.3-0.9,0.6c-0.2,0.2-0.4,0.5-0.4,0.8c-0.1,0.3,0,0.5,0.1,0.8s0.3,0.5,0.5,0.7c0.3,0.2,0.6,0.4,1,0.6
		c0.4,0.2,0.8,0.2,1.2,0.3c0.4,0,0.8,0,1.2,0c0.4-0.1,0.8-0.2,1.1-0.3c0.3-0.1,0.6-0.3,0.9-0.6c0.2-0.2,0.4-0.5,0.4-0.7
		c0.1-0.3,0-0.5-0.1-0.8C405.7,48.7,405.5,48.5,405.2,48.2z"/>
	<path class="st2" d="M406.8,35.3c-0.3-0.2-0.6-0.4-1-0.6c-0.4-0.2-0.8-0.3-1.3-0.3c-0.4,0-0.9,0-1.3,0c-0.4,0.1-0.8,0.2-1.2,0.3
		c-0.4,0.2-0.7,0.4-0.9,0.6c-0.2,0.3-0.4,0.5-0.4,0.8c-0.1,0.3,0,0.6,0.1,0.8c0.1,0.3,0.3,0.5,0.6,0.8c0.3,0.2,0.6,0.4,1,0.6
		c0.4,0.2,0.8,0.3,1.3,0.3c0.4,0,0.9,0,1.3,0c0.4-0.1,0.8-0.2,1.2-0.3c0.4-0.2,0.7-0.4,0.9-0.6c0.2-0.3,0.4-0.5,0.4-0.8
		c0.1-0.3,0-0.6-0.1-0.8C407.3,35.8,407.1,35.5,406.8,35.3z"/>
	<path class="st2" d="M414.7,38.5c-0.3-0.2-0.6-0.4-1-0.6c-0.4-0.2-0.8-0.3-1.2-0.3c-0.4,0-0.9,0-1.3,0c-0.4,0.1-0.8,0.2-1.2,0.3
		c-0.4,0.2-0.7,0.4-0.9,0.6c-0.2,0.2-0.4,0.5-0.4,0.8c-0.1,0.3,0,0.6,0.1,0.8c0.1,0.3,0.3,0.5,0.5,0.8c0.3,0.2,0.6,0.4,1,0.6
		c0.4,0.2,0.8,0.3,1.2,0.3c0.4,0,0.9,0,1.3,0c0.4-0.1,0.8-0.2,1.2-0.3c0.4-0.2,0.7-0.4,0.9-0.6c0.2-0.2,0.4-0.5,0.5-0.8s0-0.6,0-0.8
		C415.1,39,414.9,38.8,414.7,38.5z"/>
	<path class="st2" d="M399.4,32.8c-0.1-0.3-0.3-0.5-0.6-0.8c-0.3-0.2-0.6-0.5-1-0.6c-0.4-0.2-0.8-0.3-1.3-0.3c-0.4-0.1-0.9,0-1.3,0
		c-0.4,0.1-0.8,0.2-1.2,0.3c-0.4,0.2-0.7,0.4-0.9,0.6c-0.2,0.3-0.4,0.5-0.4,0.8c-0.1,0.3,0,0.6,0.1,0.8c0.1,0.3,0.3,0.5,0.6,0.8
		c0.3,0.2,0.6,0.4,1,0.6c0.4,0.2,0.8,0.3,1.3,0.3c0.4,0,0.9,0,1.3,0c0.4-0.1,0.8-0.2,1.2-0.3c0.4-0.2,0.7-0.4,0.9-0.6
		c0.2-0.3,0.4-0.5,0.4-0.8S399.5,33,399.4,32.8z"/>
	<path class="st0" d="M392.6,22.8l-0.4-14.5c0-0.8-0.2-1.2-0.4-1.2c-0.1,0-0.5,0.2-1,0.7l-10.6,12.5c-1.2,1.4-2.3,4.3-2.3,6.2
		l-0.1,14.4c0,0.7,0.1,1,0.2,1.2c0,0,0,0,0.1,0c0,0,0.4,0,1-0.7l11.2-12.6C391.6,27.4,392.6,24.6,392.6,22.8z M386.5,23.7
		c-0.1,0.4-0.2,0.7-0.3,1.1c-0.1,0.4-0.3,0.7-0.5,1.1c-0.2,0.3-0.4,0.6-0.6,0.9s-0.4,0.4-0.6,0.5s-0.4,0.1-0.5,0.1s-0.3-0.1-0.3-0.3
		c-0.1-0.2-0.1-0.4-0.1-0.7c0-0.3,0-0.6,0.1-1s0.2-0.7,0.3-1.1c0.1-0.4,0.3-0.7,0.5-1.1c0.2-0.3,0.4-0.6,0.6-0.9s0.4-0.4,0.6-0.5
		s0.4-0.1,0.5-0.1s0.3,0.1,0.4,0.3c0.1,0.2,0.1,0.4,0.1,0.7C386.6,23,386.5,23.3,386.5,23.7z"/>
	<path class="st2" d="M386.1,21.6c-0.1,0-0.3,0-0.5,0.1s-0.4,0.3-0.6,0.5c-0.2,0.3-0.4,0.6-0.6,0.9s-0.4,0.7-0.5,1.1
		s-0.3,0.7-0.3,1.1c-0.1,0.4-0.1,0.7-0.1,1s0,0.5,0.1,0.7s0.2,0.3,0.3,0.3c0.1,0,0.3,0,0.5-0.1s0.4-0.3,0.6-0.5
		c0.2-0.3,0.4-0.6,0.6-0.9s0.4-0.7,0.5-1.1s0.3-0.7,0.3-1.1c0.1-0.4,0.1-0.7,0.1-1s-0.1-0.5-0.1-0.7
		C386.4,21.8,386.2,21.7,386.1,21.6z"/>
</g>
</svg>
